<?xml version="1.0" encoding="UTF-8" standalone="no"?>
<svg
   xmlns:dc="http://purl.org/dc/elements/1.1/"
   xmlns:cc="http://creativecommons.org/ns#"
   xmlns:rdf="http://www.w3.org/1999/02/22-rdf-syntax-ns#"
   xmlns:svg="http://www.w3.org/2000/svg"
   xmlns="http://www.w3.org/2000/svg"
   id="svg8"
   version="1.1"
   viewBox="0 0 77.432816 43.749693"
   height="165.35316"
   width="292.65933">
  <defs
     id="defs2" />
  <metadata
     id="metadata5">
    <rdf:RDF>
      <cc:Work
         rdf:about="">
        <dc:format>image/svg+xml</dc:format>
        <dc:type
           rdf:resource="http://purl.org/dc/dcmitype/StillImage" />
        <dc:title></dc:title>
        <cc:license
           rdf:resource="" />
      </cc:Work>
    </rdf:RDF>
  </metadata>
  <g
     transform="translate(-17.656457,-26.514639)"
     style="display:inline"
     id="layer1">
    <g
       id="g1466">
      <path
         style="fill:#3e6077;fill-opacity:1;stroke:none;stroke-width:0.264583px;stroke-linecap:butt;stroke-linejoin:miter;stroke-opacity:1"
         d="m 17.656457,60.72751 c 0,0 9.630794,-2.942744 11.235926,-4.815398 1.605132,-1.872655 -0.802566,-2.407698 -0.267523,-8.293185 0.535046,-5.885484 0.267523,-8.560705 6.42053,-10.700882 6.153007,-2.140175 39.860789,-4.815398 42.803532,-9.363271 2.942743,-4.547876 2.942743,6.955573 -2.407698,12.573537 -5.350443,5.617962 -24.612031,18.994067 -27.822297,19.52911 -3.210263,0.535043 -9.898316,2.407698 -12.306014,0.267523 -2.407698,-2.140178 -4.280352,-2.675221 -4.280352,-2.675221 0,0 -9.363274,3.74531 -10.16584,5.082919 -0.802566,1.337611 -3.210264,-1.605132 -3.210264,-1.605132 z"
         id="path842" />
      <path
         id="path842-3"
         d="m 35.741942,41.54448 c 0,0 7.600616,5.064636 9.835436,5.111791 2.23482,0.04716 1.224648,-1.951682 5.654426,-4.969518 4.429778,-3.017831 6.149546,-4.748131 11.187655,-1.662356 5.038108,3.085777 26.300371,25.208081 31.178226,24.651833 4.877855,-0.556247 -3.178824,6.076433 -10.191039,5.559334 -7.012217,-0.517101 -27.459657,-6.327416 -29.680922,-8.272709 -2.221262,-1.945293 -7.379762,-5.56095 -7.265747,-8.485278 0.114017,-2.924329 -0.5884,-4.547536 -0.5884,-4.547536 0,0 -8.008832,-4.414076 -9.407289,-4.206283 -1.398457,0.207797 -0.722346,-3.179278 -0.722346,-3.179278 z"
         style="display:inline;fill:#bcc8b7;fill-opacity:1;stroke:none;stroke-width:0.240079px;stroke-linecap:butt;stroke-linejoin:miter;stroke-opacity:1" />
    </g>
  </g>
</svg>
